<?xml version="1.0" encoding="UTF-8" standalone="no"?>
<svg
   viewBox="0 0 256 256"
   fill="none"
   x="0px"
   y="0px"
   version="1.1"
   id="svg2"
   sodipodi:docname="avatar.svg"
   width="256"
   height="256"
   inkscape:version="1.3.2 (091e20ef0f, 2023-11-25, custom)"
   xmlns:inkscape="http://www.inkscape.org/namespaces/inkscape"
   xmlns:sodipodi="http://sodipodi.sourceforge.net/DTD/sodipodi-0.dtd"
   xmlns="http://www.w3.org/2000/svg"
   xmlns:svg="http://www.w3.org/2000/svg">
  <defs
     id="defs2" />
  <sodipodi:namedview
     id="namedview2"
     pagecolor="#ffffff"
     bordercolor="#000000"
     borderopacity="0.25"
     inkscape:showpageshadow="2"
     inkscape:pageopacity="0.0"
     inkscape:pagecheckerboard="0"
     inkscape:deskcolor="#d1d1d1"
     inkscape:zoom="1"
     inkscape:cx="49"
     inkscape:cy="62.5"
     inkscape:window-width="2514"
     inkscape:window-height="1343"
     inkscape:window-x="20"
     inkscape:window-y="71"
     inkscape:window-maximized="1"
     inkscape:current-layer="svg2" />
  <path
     fill-rule="evenodd"
     clip-rule="evenodd"
     d="m 128,0 c 70.69241,0 128,57.307591 128,128 0,69.98556 -56.16725,126.85255 -125.88316,127.98293 L 128,256 C 57.307591,256 0,198.69241 0,128 0,57.307591 57.307591,0 128,0 Z"
     fill="#000000"
     id="path2"
     style="fill:#ffffff;stroke-width:2.84444"
     sodipodi:nodetypes="ssccss" />
  <path
     fill-rule="evenodd"
     clip-rule="evenodd"
     d="m 128,0 c 70.69241,0 128,57.307591 128,128 0,69.98556 -56.16725,126.85255 -125.88316,127.98293 L 128,256 C 57.307591,256 0,198.69241 0,128 0,57.307591 57.307591,0 128,0 Z m 42.39332,130.51193 C 159.27723,141.61436 143.92832,148.48 126.976,148.48 c -16.53077,0 -31.53664,-6.52857 -42.579342,-17.15029 -19.855076,13.7179 -32.933262,36.54656 -33.192676,62.44465 L 51.2,194.56 51.1983,213.86496 C 71.579591,232.10752 98.49429,243.2 128,243.2 c 29.50628,0 56.42155,-11.09305 76.80284,-29.33618 L 204.8,194.56 c 0,-26.74517 -13.67125,-50.29746 -34.40668,-64.04807 z M 126.976,35.84 c -28.27691,0 -51.2,22.923093 -51.2,51.2 0,28.27691 22.92309,51.2 51.2,51.2 28.27691,0 51.2,-22.92309 51.2,-51.2 0,-28.276907 -22.92309,-51.2 -51.2,-51.2 z"
     fill="#000000"
     id="path1"
     style="stroke-width:2.84444;fill:#f2f2f2" />
</svg>
